<svg width="558" height="513" viewBox="0 0 558 513" fill="none" xmlns="http://www.w3.org/2000/svg">
<path d="M534.962 256.153C534.962 397.538 420.347 512.153 278.962 512.153C137.577 512.153 22.9619 397.538 22.9619 256.153C22.9619 114.768 137.577 0.153248 278.962 0.153248C420.347 0.153248 534.962 114.768 534.962 256.153Z" fill="#C62727"/>
<path fill-rule="evenodd" clip-rule="evenodd" d="M140.213 224.384C137.956 231.176 134.179 236.727 129.315 241.441C120.843 249.652 108.431 255.892 93.2067 260.372C62.6161 269.375 25.5992 269.925 0.891295 269.703L0.62262 299.702C25.2508 299.923 66.3434 299.55 101.676 289.152C119.414 283.932 136.917 275.851 150.194 262.983C160.708 252.793 168.163 239.971 171.138 224.384H206.341V194.384H174.369C176.396 186.311 180.014 179.993 184.632 174.864C192.089 166.583 203.185 160.277 217.657 155.697C247.063 146.392 285.277 145.673 320.687 145.36L320.421 115.361C286.068 115.665 243.098 116.181 208.606 127.095C191.13 132.625 174.598 141.174 162.338 154.79C152.697 165.497 146.304 178.669 143.78 194.384H107.562V224.384H140.213ZM385.187 225.037H243.208V195.037H557.167V225.037H415.187V381.946H385.187V225.037Z" fill="black"/>
</svg>
